<svg width="300" height="300" viewBox="0 0 300 300" fill="none" xmlns="http://www.w3.org/2000/svg">
<rect width="300" height="300" fill="#121212"/>
<path d="M98 238.3V234.079L175.724 64.2282H131.026C124.239 64.2282 119.024 65.0559 115.382 66.7113C111.74 68.3668 109.174 71.0155 107.684 74.6576C106.36 78.134 105.532 82.9349 105.201 89.0601L104.705 102.469H101.973L103.463 61H199.066V64.9731L121.094 235.072H173.737C179.863 235.072 184.746 234.327 188.388 232.837C192.03 231.182 194.679 228.533 196.334 224.891C198.155 221.249 199.149 216.448 199.314 210.488L199.811 196.582H202.294V238.3H98Z" fill="white"/>
</svg>
