<svg width="52" height="47" viewBox="0 0 52 47" fill="none" xmlns="http://www.w3.org/2000/svg">
<path d="M11.488 33.4503C11.1938 33.4503 10.9476 33.3475 10.7495 33.1417C10.5513 32.936 10.4523 32.6952 10.4523 32.4192C10.4523 32.1432 10.5513 31.9085 10.7495 31.7151C10.9476 31.5217 11.1938 31.425 11.488 31.425H40.5582C40.8224 31.425 41.0534 31.525 41.2511 31.7251C41.4489 31.9251 41.5477 32.1632 41.5477 32.4391C41.5477 32.7151 41.4489 32.9526 41.2511 33.1517C41.0534 33.3508 40.8224 33.4503 40.5582 33.4503H11.488ZM11.488 24.2705C11.1938 24.2705 10.9476 24.1676 10.7495 23.9619C10.5513 23.7561 10.4523 23.5153 10.4523 23.2393C10.4523 22.9633 10.5513 22.7287 10.7495 22.5353C10.9476 22.3418 11.1938 22.2451 11.488 22.2451H40.5582C40.8224 22.2451 41.0534 22.3452 41.2511 22.5452C41.4489 22.7453 41.5477 22.9833 41.5477 23.2593C41.5477 23.5353 41.4489 23.7728 41.2511 23.9719C41.0534 24.171 40.8224 24.2705 40.5582 24.2705H11.488ZM11.488 15.0906C11.1938 15.0906 10.9476 14.9878 10.7495 14.782C10.5513 14.5763 10.4523 14.3354 10.4523 14.0594C10.4523 13.7835 10.5513 13.5488 10.7495 13.3554C10.9476 13.162 11.1938 13.0653 11.488 13.0653H40.5582C40.8224 13.0653 41.0534 13.1653 41.2511 13.3654C41.4489 13.5654 41.5477 13.8035 41.5477 14.0794C41.5477 14.3554 41.4489 14.5929 41.2511 14.792C41.0534 14.9911 40.8224 15.0906 40.5582 15.0906H11.488Z" fill="black"/>
</svg>
