<svg width="31" height="27" viewBox="0 0 31 27" fill="none" xmlns="http://www.w3.org/2000/svg">
<path d="M2.22028 11.4376C1.23595 11.4376 0.43799 12.2356 0.43799 13.2199C0.43799 14.2042 1.23595 15.0022 2.22028 15.0022V11.4376ZM30.2603 14.4802C30.9563 13.7842 30.9563 12.6557 30.2603 11.9596L18.9179 0.617244C18.2219 -0.078783 17.0934 -0.078783 16.3973 0.617244C15.7013 1.31327 15.7013 2.44175 16.3973 3.13778L26.4795 13.2199L16.3973 23.302C15.7013 23.9981 15.7013 25.1265 16.3973 25.8226C17.0934 26.5186 18.2219 26.5186 18.9179 25.8226L30.2603 14.4802ZM2.22028 15.0022H29V11.4376H2.22028V15.0022Z" fill="black"/>
</svg>
